# xmcd CD database file
# Copyright (C) 1995-1998 Ti Kan
#
# Track frame offsets:
#	150
#	20248
#	40873
#	61987
#	79648
#	94416
#	111967
#	127905
#	147931
#	167581
#	195936
#	221473
#	245561
#	267066
#	287511
#	308286
#
# Disc length: 4404 seconds
#
# Revision: 1
# Processed by: cddbd v1.4PL0 Copyright (c) Steve Scherf et al.
# Submitted via: CDex 1.30Release
#
DISCID=d5113210
DTITLE=Buddy Guy - None
DYEAR=2003
DGENRE=Blues
TTITLE0=Damn Right, I've Got the Blues
TTITLE1=Where is the Next One Coming From
TTITLE2=Mustang Sally
TTITLE3=Let Me Love You Baby
TTITLE4=I Smell Trouble
TTITLE5=Please Don't Drive Me Away
TTITLE6=Shame, Shame, Shame
TTITLE7=Love Her With a Feeling
TTITLE8=Someone Else is Steppin' In
TTITLE9=Don't Tell Me About the Blues
TTITLE10=Heavy Love
TTITLE11=Midnight Train
TTITLE12=Had a Bad Night
TTITLE13=When the Time is Right
TTITLE14=Look What All You Got
TTITLE15=Who's Been Foolin' You
EXTD=YEAR: 2003 ID3G:   0
EXTT0=
EXTT1=
EXTT2=
EXTT3=
EXTT4=
EXTT5=
EXTT6=
EXTT7=
EXTT8=
EXTT9=
EXTT10=
EXTT11=
EXTT12=
EXTT13=
EXTT14=
EXTT15=
PLAYORDER=
